<svg width="320" height="43" viewBox="0 0 320 43" fill="#fff" xmlns="http://www.w3.org/2000/svg">
    <path
        d="M67.4083 27.5408V41.7228C67.4083 41.891 67.3242 41.9751 67.156 41.9751H58.0155C57.8473 41.9751 57.7632 41.891 57.7632 41.7228V0.381952C57.7632 0.287235 57.8004 0.196313 57.8669 0.128857C57.9334 0.0614021 58.0238 0.0228281 58.1185 0.021475C62.3034 0.000876642 66.5157 0.0128961 70.7556 0.0575258C73.732 0.0884232 77.9907 1.45307 79.5098 4.21839C79.8394 4.82089 80.3904 5.15561 80.6994 5.7993C83.13 10.8459 83.0579 17.1541 80.2823 21.8299C78.7923 24.3361 76.6261 25.9633 73.7835 26.7117C72.067 27.1615 70.093 27.2971 67.8615 27.1186C67.5594 27.0945 67.4083 27.2353 67.4083 27.5408Z"
    />
    <path
        d="M103.228 32.4644L119.13 32.4489C119.174 32.4489 119.216 32.4663 119.247 32.4972C119.277 32.5281 119.295 32.57 119.295 32.6137V41.816C119.295 41.8597 119.277 41.9016 119.247 41.9325C119.216 41.9634 119.174 41.9808 119.13 41.9808H93.7117C93.668 41.9808 93.626 41.9634 93.5951 41.9325C93.5642 41.9016 93.5469 41.8597 93.5469 41.816V0.176509C93.5469 0.132805 93.5642 0.0908838 93.5951 0.0599803C93.626 0.0290769 93.668 0.0117188 93.7117 0.0117188H119.13C119.174 0.0117188 119.216 0.0290769 119.247 0.0599803C119.277 0.0908838 119.295 0.132805 119.295 0.176509V9.24491C119.295 9.28861 119.277 9.33053 119.247 9.36144C119.216 9.39234 119.174 9.4097 119.13 9.4097H103.238C103.195 9.4097 103.153 9.42706 103.122 9.45796C103.091 9.48886 103.074 9.53079 103.074 9.57449V16.0681C103.074 16.1118 103.091 16.1537 103.122 16.1846C103.153 16.2155 103.195 16.2329 103.238 16.2329L114.882 16.2277C114.925 16.2277 114.967 16.2451 114.998 16.276C115.029 16.3069 115.046 16.3488 115.046 16.3925V25.5948C115.046 25.6385 115.029 25.6804 114.998 25.7113C114.967 25.7423 114.925 25.7596 114.882 25.7596L103.254 25.7699C103.21 25.7699 103.168 25.7873 103.137 25.8182C103.106 25.8491 103.089 25.891 103.089 25.9347L103.063 32.2996C103.063 32.3433 103.081 32.3852 103.112 32.4161C103.142 32.447 103.184 32.4644 103.228 32.4644Z"
    />
    <path
        d="M151.424 20.0642C151.633 20.4555 151.738 20.4298 151.738 19.9869V0.269198C151.738 0.20091 151.765 0.135423 151.813 0.0871363C151.861 0.0388496 151.927 0.0117188 151.995 0.0117188H161.512C161.69 0.0117188 161.779 0.100972 161.779 0.279491V41.5946C161.779 41.852 161.651 41.9808 161.393 41.9808H152.433C152.251 41.9808 152.117 41.9001 152.031 41.7388L141.171 21.8408C141.006 21.5387 140.924 21.5593 140.924 21.9026V41.7233C140.924 41.895 140.838 41.9808 140.666 41.9808H131.139C130.968 41.9808 130.882 41.895 130.882 41.7233V0.269198C130.882 0.20091 130.909 0.135423 130.957 0.0871363C131.006 0.0388496 131.071 0.0117188 131.139 0.0117188H140.388C140.584 0.0117188 140.721 0.100972 140.8 0.279491C141.442 1.70764 142.153 3.12035 142.932 4.5176C145.843 9.75644 148.674 14.9386 151.424 20.0642Z"
    />
    <path
        d="M193.682 27.5622H189.845C189.588 27.5622 189.459 27.4334 189.459 27.1759V19.7091C189.459 19.5374 189.545 19.4516 189.717 19.4516H202.848C202.882 19.4516 202.915 19.4651 202.939 19.4893C202.963 19.5134 202.977 19.5462 202.977 19.5803V33.7314C202.977 33.8961 202.93 34.0489 202.838 34.1897C201.753 35.8204 200.682 37.046 199.624 37.8665C199.195 38.2029 198.766 38.5359 198.337 38.8655C197.884 39.2157 197.419 39.5143 196.942 39.7615C192.935 41.8591 188.826 42.465 184.613 41.5793C182.773 41.1914 180.973 40.4241 179.212 39.2775C177.622 38.2441 176.323 36.8159 175.313 34.993C174.143 32.8714 173.411 30.7978 173.12 28.7723C172.476 24.251 172.569 18.8233 172.975 14.1835C173.164 12.0448 173.798 9.93344 174.876 7.84957C175.816 6.04035 177.256 4.36331 179.196 2.81844C179.67 2.44252 180.257 2.37042 180.623 1.89151C180.68 1.81522 180.758 1.75619 180.847 1.72079C180.936 1.6854 181.033 1.67499 181.127 1.69068C181.282 1.71128 181.407 1.6615 181.503 1.54134C181.599 1.41432 181.723 1.32162 181.874 1.26326C185.053 0.0204924 188.266 -0.273029 191.514 0.382684C193.642 0.811815 195.584 1.6821 197.338 2.99352C198.341 3.74193 199.19 4.64311 199.887 5.69705C200.605 6.78533 201.226 7.89248 201.751 9.01852C201.815 9.15457 201.827 9.30865 201.786 9.45245C201.746 9.59625 201.655 9.72011 201.53 9.80127L194.485 14.3483C194.317 14.4582 194.193 14.4222 194.114 14.2402C193.617 13.1142 192.916 12.1306 192.013 11.2895C191.334 10.6544 190.58 10.2785 189.753 10.1617C188.702 10.0072 187.665 10.0656 186.642 10.3368C185.293 10.6973 184.256 11.4989 183.532 12.7417C182.845 13.9261 182.485 15.1688 182.451 16.47C182.382 18.9967 182.353 21.7294 182.363 24.6681C182.367 26.0859 182.619 27.3218 183.12 28.3758C183.817 29.8314 185.007 30.9643 186.689 31.7745C187.981 32.4028 189.14 32.1556 190.499 32.1092C191.802 32.0629 192.729 31.136 193.558 30.2245C194.212 29.5036 193.867 28.7775 193.996 27.9278C194.03 27.684 193.926 27.5622 193.682 27.5622Z"
    />
    <path
        d="M228.935 31.0726L225.341 41.8043C225.326 41.8501 225.297 41.89 225.258 41.9186C225.219 41.9473 225.173 41.9631 225.124 41.9639L214.784 41.9897C214.748 41.9896 214.712 41.9811 214.68 41.9648C214.648 41.9485 214.62 41.925 214.598 41.8959C214.577 41.8669 214.562 41.8333 214.556 41.7977C214.55 41.7621 214.552 41.7256 214.563 41.691L226.736 0.164775C226.751 0.117193 226.78 0.0754976 226.82 0.0458257C226.86 0.0161539 226.908 8.98374e-05 226.958 0L239.245 0.0154481C239.294 0.0155379 239.343 0.031602 239.382 0.0612738C239.422 0.0909457 239.452 0.132641 239.466 0.180223L251.614 41.691C251.624 41.7256 251.626 41.7621 251.62 41.7977C251.614 41.8333 251.6 41.8669 251.578 41.8959C251.557 41.925 251.529 41.9485 251.496 41.9648C251.464 41.9811 251.429 41.9896 251.392 41.9897L241.078 41.9639C241.03 41.9635 240.984 41.9484 240.945 41.9208C240.907 41.8931 240.877 41.8543 240.862 41.8094L237.2 31.0622C237.185 31.0165 237.156 30.9765 237.118 30.9479C237.079 30.9193 237.032 30.9034 236.984 30.9026L229.151 30.9129C229.103 30.9137 229.056 30.9296 229.018 30.9582C228.979 30.9868 228.95 31.0268 228.935 31.0726Z"
    />
    <path
        d="M264.343 9.4097H255.151C255.106 9.4097 255.063 9.3918 255.031 9.35993C254.999 9.32806 254.981 9.28484 254.981 9.23977L254.992 0.181648C254.992 0.136578 255.01 0.0933582 255.042 0.061489C255.073 0.0296198 255.117 0.0117188 255.162 0.0117188H283.263C283.308 0.0117188 283.351 0.0296198 283.383 0.061489C283.415 0.0933582 283.433 0.136578 283.433 0.181648L283.443 9.26551C283.443 9.31058 283.425 9.3538 283.393 9.38567C283.362 9.41754 283.318 9.43544 283.273 9.43544L274.081 9.3891C274.036 9.3891 273.993 9.407 273.961 9.43887C273.929 9.47074 273.911 9.51397 273.911 9.55904L273.916 41.816C273.916 41.8611 273.899 41.9043 273.867 41.9362C273.835 41.968 273.792 41.9859 273.747 41.9859L264.683 41.9808C264.638 41.9808 264.595 41.9629 264.563 41.931C264.531 41.8991 264.513 41.8559 264.513 41.8109V9.57963C264.513 9.53456 264.495 9.49134 264.464 9.45947C264.432 9.4276 264.388 9.4097 264.343 9.4097Z"
    />
    <path
        d="M303.969 32.4541H319.804C319.856 32.4541 319.906 32.4747 319.943 32.5114C319.979 32.5481 320 32.5979 320 32.6497L319.995 41.7851C319.995 41.837 319.974 41.8868 319.937 41.9235C319.901 41.9602 319.851 41.9808 319.799 41.9808H294.448C294.396 41.9808 294.346 41.9602 294.309 41.9235C294.273 41.8868 294.252 41.837 294.252 41.7851V0.207405C294.252 0.155507 294.273 0.10573 294.309 0.0690323C294.346 0.0323345 294.396 0.0117188 294.448 0.0117188H319.799C319.851 0.0117188 319.901 0.0323345 319.937 0.0690323C319.974 0.10573 319.995 0.155507 319.995 0.207405L320 9.21917C320 9.27107 319.979 9.32084 319.943 9.35754C319.906 9.39424 319.856 9.41485 319.804 9.41485L303.964 9.39941C303.912 9.39941 303.862 9.42002 303.826 9.45672C303.789 9.49342 303.768 9.54318 303.768 9.59508L303.789 16.0424C303.789 16.0943 303.81 16.144 303.846 16.1807C303.883 16.2174 303.933 16.238 303.985 16.238H315.571C315.623 16.238 315.673 16.2587 315.71 16.2954C315.746 16.3321 315.767 16.3818 315.767 16.4337L315.736 25.5485C315.736 25.5742 315.731 25.5996 315.721 25.6234C315.711 25.6471 315.697 25.6687 315.679 25.6868C315.661 25.705 315.639 25.7194 315.615 25.7293C315.591 25.7391 315.566 25.7442 315.54 25.7442L303.98 25.7648C303.928 25.7648 303.878 25.7854 303.841 25.8221C303.804 25.8588 303.784 25.9086 303.784 25.9605L303.774 32.2584C303.774 32.3103 303.794 32.3601 303.831 32.3967C303.868 32.4334 303.917 32.4541 303.969 32.4541Z"
    />
    <path
        d="M41.5368 18.9253L36.8095 18.9768C36.6276 18.9802 36.5297 19.0729 36.516 19.2549C35.8105 31.0886 21.7109 37.4432 13.5231 27.4685C11.6178 25.1477 10.6033 22.5403 10.4797 19.6463C10.4591 19.1759 10.2119 18.939 9.73817 18.9356H5.83479C5.3576 18.9356 5.16533 19.1691 5.25803 19.636C5.50521 20.8358 5.43826 22.0254 5.77298 23.2355C6.99515 27.6779 9.43263 31.1744 13.0854 33.7252C20.8149 39.122 31.6084 37.6028 37.551 30.2286C40.0537 27.1183 41.7582 22.9729 41.5368 18.9253L46.5165 18.9099C46.7087 18.9099 46.8014 19.006 46.7945 19.1982C46.64 25.2404 44.5974 30.3677 40.6665 34.58C26.1138 50.1781 0.721253 40.2703 0.000312081 19.1416C-0.00655402 18.9253 0.0998759 18.8172 0.319591 18.8172L4.95936 18.8275C5.12758 18.8275 5.21513 18.7451 5.22199 18.5803C5.62366 11.1683 9.05156 5.79046 15.5057 2.44667C19.6099 0.325044 25.1406 0.067566 29.4868 1.65879C36.5932 4.25932 41.9024 11.098 41.5368 18.9253ZM29.0954 7.22032C24.4539 4.99914 19.9755 5.42999 15.6602 8.51287C13.2639 10.226 11.695 12.5519 10.9535 15.4905C10.7681 16.2321 10.6325 17.0543 10.5467 17.9572C10.4986 18.4653 10.7303 18.721 11.2419 18.7245L14.7024 18.7399C15.159 18.7434 15.4199 18.5185 15.4851 18.0653C16.9218 8.14725 30.5116 8.59011 31.4539 18.5751C31.4642 18.6781 31.5209 18.7296 31.6239 18.7296H36.2791C36.3028 18.7297 36.3262 18.7249 36.3479 18.7154C36.3696 18.7059 36.3891 18.692 36.4051 18.6745C36.4211 18.6571 36.4332 18.6365 36.4408 18.614C36.4484 18.5916 36.4512 18.5678 36.449 18.5442C35.965 13.1097 33.5138 9.33508 29.0954 7.22032ZM20.3 18.9305L16.067 18.9408C15.7443 18.9408 15.6018 19.1021 15.6396 19.4248C16.2318 24.7289 21.783 29.3326 27.051 26.145C29.5503 24.631 30.9682 22.3532 31.3046 19.3115C31.3097 19.2639 31.3048 19.2158 31.2903 19.1702C31.2757 19.1247 31.2519 19.0828 31.2203 19.0473C31.1887 19.0118 31.15 18.9835 31.1069 18.9643C31.0637 18.945 31.017 18.9353 30.9699 18.9356H26.5876C26.3816 18.9356 26.2563 18.8343 26.2117 18.6318C25.398 15.1507 21.3247 15.2691 20.6707 18.6266C20.633 18.8292 20.5094 18.9305 20.3 18.9305Z"
    />
</svg>